<svg xmlns="http://www.w3.org/2000/svg" viewBox="0 0 24 24" fill="none"
     stroke="#534AB7" stroke-width="2" stroke-linecap="round" stroke-linejoin="round">
  <path d="M9.5 2A2.5 2.5 0 0 1 12 4.5v15a2.5 2.5 0 0 1-4.96-.46 2.5 2.5 0 0 1-1.07-4.13A3 3 0 0 1 4.25 12a3 3 0 0 1 .79-2 2.5 2.5 0 0 1 .65-3.57A2.5 2.5 0 0 1 9.5 2Z"/>
  <path d="M14.5 2A2.5 2.5 0 0 0 12 4.5v15a2.5 2.5 0 0 0 4.96-.46 2.5 2.5 0 0 0 1.07-4.13A3 3 0 0 0 19.75 12a3 3 0 0 0-.79-2 2.5 2.5 0 0 0-.65-3.57A2.5 2.5 0 0 0 14.5 2Z"/>
</svg>
